<?xml version="1.0" encoding="utf-8"?>
<!-- Generator: Adobe Illustrator 16.0.4, SVG Export Plug-In . SVG Version: 6.00 Build 0)  -->
<!DOCTYPE svg PUBLIC "-//W3C//DTD SVG 1.1//EN" "http://www.w3.org/Graphics/SVG/1.1/DTD/svg11.dtd">
<svg version="1.1" id="Ebene_1" xmlns="http://www.w3.org/2000/svg" xmlns:xlink="http://www.w3.org/1999/xlink" x="0px" y="0px"
	 width="123px" height="123px" viewBox="0 0 123 123" enable-background="new 0 0 123 123" xml:space="preserve">
<path opacity="0.7" fill="#FFFFFF" d="M24.231,61.272c-0.18-0.406-0.652-0.589-1.058-0.41c-0.406,0.18-0.589,0.652-0.41,1.058
	l0.582,1.318c0.18,0.406,0.652,0.59,1.058,0.41c0.406-0.182,0.589-0.652,0.41-1.061L24.231,61.272z"/>
<path opacity="0.7" fill="#FFFFFF" d="M17.917,66.413c-0.18-0.405-0.652-0.589-1.058-0.409c-0.406,0.18-0.589,0.65-0.409,1.059
	l0.582,1.317c0.18,0.406,0.652,0.589,1.058,0.409c0.406-0.18,0.589-0.65,0.409-1.057L17.917,66.413z"/>
<path opacity="0.7" fill="#FFFFFF" d="M23.032,66.413c-0.18-0.405-0.652-0.589-1.058-0.409c-0.406,0.18-0.589,0.65-0.41,1.059
	l0.582,1.317c0.18,0.406,0.652,0.589,1.058,0.409c0.406-0.18,0.589-0.65,0.41-1.057L23.032,66.413z"/>
<path opacity="0.7" fill="#FFFFFF" d="M28.147,67.633c-0.18-0.404-0.652-0.588-1.058-0.408c-0.406,0.18-0.589,0.65-0.41,1.059
	l0.582,1.316c0.18,0.406,0.652,0.59,1.058,0.41c0.406-0.18,0.589-0.652,0.41-1.058L28.147,67.633z"/>
<path opacity="0.7" fill="#FFFFFF" d="M116.332,14.566c-0.878-1.462-2.568-2.059-3.775-1.334L75.264,35.636
	c-0.886,0.533-0.709,1.297-0.205,2.244L37.691,60.327c-1.39-0.112-3.605,0.452-6.162,1.551c-1.297-3.616-3.153-5.919-5.606-6.998
	c0.027-0.012,0.049-0.022,0.076-0.035c0.867-0.396,0.294-0.433-1.085-0.332c-0.796-0.228-1.635-0.368-2.546-0.368
	c-0.708,0-1.46,0.083-2.255,0.221c1.926-1.246,2.926-2.427,4.556-4.462c1.216-1.52-2.247,1.001-6.433,3.449
	c1.764-2.845,2.075-4.411,2.583-7.549c0.355-2.199-2.018,3.222-4.995,7.984c-4.959-2.395-9.651-5.52-8.198-3.892
	c2.117,2.372,3.221,3.523,6.24,4.971c-4.845,0.189-9.122-0.07-7.278,0.556c2.536,0.861,4.022,1.322,6.428,1.311
	c-1.15,0.577-2.255,1.294-3.187,2.196c-1.89,0.983-2.866,1.538-1.701,1.374c0.214-0.031,0.398-0.059,0.599-0.087
	c-1.748,2.541-1.902,5.805-0.454,9.979c2.59,7.47,10.941,18.762,17.622,18.762c0.647,0,1.272-0.104,1.856-0.309
	c3.156-1.094,5.162-5.107,5.644-11.305c0.224-2.861,0.095-5.951-0.317-8.883c3.041-2.159,5.236-4.371,5.922-5.955l37.367-22.449
	c0.599,0.888,1.191,1.404,2.076,0.872l37.291-22.404C116.945,17.801,117.211,16.027,116.332,14.566z M30.515,76.766
	c-0.215,0.301-0.644,0.688-1.316-1.254c-0.046-0.131-0.09-0.229-0.134-0.35c0.156,0.031,0.321,0.031,0.479-0.038
	c0.406-0.181,0.589-0.651,0.41-1.058l-0.582-1.318c-0.18-0.406-0.652-0.59-1.058-0.41c-0.304,0.135-0.483,0.434-0.479,0.746
	c-1.3-1.006-2.547,1.339-4.085,1.339c-0.233,0-0.507-0.18-0.806-0.458c0.087-0.008,0.176-0.021,0.262-0.059
	c0.406-0.18,0.589-0.652,0.41-1.059l-0.582-1.318c-0.18-0.405-0.652-0.588-1.058-0.408c-0.406,0.179-0.589,0.65-0.41,1.057
	l0.178,0.405c-1.29-1.642-2.818-3.715-4.171-3.245c-3.139,1.09-0.778-12.354-5.139-7.268c-0.598,0.697-1.494,0.931-2.075,1.605
	c0.152-0.697,0.412-1.334,0.806-1.887c1.012-1.421,2.865-2.539,6.007-3.631c2.173-0.754,3.824-1.105,5.195-1.105
	c2.058,0,4.657,0.682,6.5,5.998c0.011,0.031,0.02,0.065,0.03,0.098c0.271,0.597,0.271,0.597,0.36,1.166
	c0.438,1.533,0.775,3.24,1.001,5.013C30.589,71.984,30.655,74.676,30.515,76.766z M32.803,66.76c-0.205-1.117-0.45-2.195-0.74-3.213
	c1.323-0.293,2.391-0.377,2.65,0.053C35.037,64.139,34.055,65.416,32.803,66.76z"/>
<path opacity="0.7" fill="#FFFFFF" d="M19.14,59.96c-0.18-0.406-0.652-0.589-1.058-0.409c-0.406,0.179-0.589,0.652-0.409,1.058
	l0.582,1.318c0.18,0.407,0.652,0.589,1.058,0.41c0.406-0.18,0.589-0.652,0.41-1.058L19.14,59.96z"/>
</svg>
